<svg width="42" height="42" viewBox="0 0 42 42" fill="none" xmlns="http://www.w3.org/2000/svg">
<g filter="url(#filter0_d_69_55)">
<circle cx="21" cy="21" r="18" fill="#42C2FF"/>
</g>
<path d="M20.9927 20.5377C20.846 20.5235 20.6701 20.5235 20.5088 20.5377C18.8258 20.4826 17.2311 19.7982 16.0625 18.6295C14.8939 17.4609 14.243 15.8996 14.2478 14.2764C14.2478 10.8136 17.151 8.00102 20.7581 8.00102C21.612 7.98617 22.4607 8.1336 23.2556 8.4349C24.0504 8.73619 24.7759 9.18545 25.3907 9.75702C26.0054 10.3286 26.4974 11.0113 26.8384 11.7661C27.1794 12.5209 27.3629 13.3331 27.3783 14.1563C27.3937 14.9794 27.2408 15.7975 26.9282 16.5637C26.6156 17.3299 26.1495 18.0292 25.5566 18.6218C24.9636 19.2143 24.2554 19.6885 23.4723 20.0172C22.6892 20.346 21.8466 20.5228 20.9927 20.5377V20.5377ZM13.6613 25.753C10.1129 28.0427 10.1129 31.774 13.6613 34.0495C17.6935 36.6502 24.3065 36.6502 28.3387 34.0495C31.8871 31.7599 31.8871 28.0286 28.3387 25.753C24.3211 23.1665 17.7082 23.1665 13.6613 25.753V25.753Z" fill="white"/>
<defs>
<filter id="filter0_d_69_55" x="0" y="0" width="42" height="42" filterUnits="userSpaceOnUse" color-interpolation-filters="sRGB">
<feFlood flood-opacity="0" result="BackgroundImageFix"/>
<feColorMatrix in="SourceAlpha" type="matrix" values="0 0 0 0 0 0 0 0 0 0 0 0 0 0 0 0 0 0 127 0" result="hardAlpha"/>
<feMorphology radius="1" operator="dilate" in="SourceAlpha" result="effect1_dropShadow_69_55"/>
<feOffset/>
<feGaussianBlur stdDeviation="1"/>
<feComposite in2="hardAlpha" operator="out"/>
<feColorMatrix type="matrix" values="0 0 0 0 0 0 0 0 0 0 0 0 0 0 0 0 0 0 0.25 0"/>
<feBlend mode="normal" in2="BackgroundImageFix" result="effect1_dropShadow_69_55"/>
<feBlend mode="normal" in="SourceGraphic" in2="effect1_dropShadow_69_55" result="shape"/>
</filter>
</defs>
</svg>
